<?xml version="1.0" encoding="utf-8"?>
<!-- Generator: Adobe Illustrator 24.1.0, SVG Export Plug-In . SVG Version: 6.00 Build 0)  -->
<svg version="1.1" id="Capa_1" xmlns="http://www.w3.org/2000/svg" xmlns:xlink="http://www.w3.org/1999/xlink" x="0px" y="0px"
	 viewBox="0 0 14.13 13.44" style="enable-background:new 0 0 14.13 13.44;" xml:space="preserve">
<style type="text/css">
	.st0{fill:none;stroke:#1D1D1B;stroke-width:0.24;stroke-miterlimit:10;}
</style>
<path class="st0" d="M6.89,0.24C3.36,0.24,0.5,3.1,0.5,6.63c0,3.53,2.86,6.39,6.39,6.39s6.39-2.86,6.39-6.39
	C13.28,3.1,10.41,0.24,6.89,0.24z M6.89,0.84c-3.2,0-5.79,2.59-5.79,5.79s2.59,5.79,5.79,5.79s5.79-2.59,5.79-5.79
	S10.08,0.84,6.89,0.84z M6.89,1.44c-2.86,0-5.19,2.33-5.19,5.19s2.33,5.19,5.19,5.19s5.19-2.33,5.19-5.19S9.75,1.44,6.89,1.44z
	 M6.89,2.04c-2.53,0-4.59,2.06-4.59,4.59s2.06,4.59,4.59,4.59c2.53,0,4.59-2.06,4.59-4.59S9.42,2.04,6.89,2.04z M6.89,2.64
	c-2.2,0-3.99,1.79-3.99,3.99c0,2.2,1.79,3.99,3.99,3.99c2.2,0,3.99-1.79,3.99-3.99C10.88,4.42,9.09,2.64,6.89,2.64z M6.89,3.24
	c-1.87,0-3.39,1.52-3.39,3.39c0,1.87,1.52,3.39,3.39,3.39s3.39-1.52,3.39-3.39C10.28,4.76,8.76,3.24,6.89,3.24z M6.89,3.84
	c-1.54,0-2.79,1.25-2.79,2.79c0,1.54,1.25,2.79,2.79,2.79s2.79-1.25,2.79-2.79C9.68,5.09,8.43,3.84,6.89,3.84z M6.89,4.44
	c-1.21,0-2.19,0.98-2.19,2.19s0.98,2.19,2.19,2.19s2.19-0.98,2.19-2.19S8.09,4.44,6.89,4.44z M6.89,5.04
	c-0.88,0-1.59,0.71-1.59,1.59s0.71,1.59,1.59,1.59s1.59-0.71,1.59-1.59S7.76,5.04,6.89,5.04z M6.89,5.64
	c-0.55,0-0.99,0.44-0.99,0.99c0,0.55,0.44,0.99,0.99,0.99s0.99-0.44,0.99-0.99C7.88,6.08,7.43,5.64,6.89,5.64z M6.89,6.24
	c-0.22,0-0.39,0.18-0.39,0.39c0,0.22,0.17,0.39,0.39,0.39c0.21,0,0.39-0.17,0.39-0.39C7.28,6.41,7.1,6.24,6.89,6.24z"/>
</svg>
